<svg id="Icon_ionic-ios-arrow-round-back" data-name="Icon ionic-ios-arrow-round-back" xmlns="http://www.w3.org/2000/svg" width="20.243" height="13.501" viewBox="0 0 20.243 13.501">
  <path id="Icon_ionic-ios-arrow-round-back-2" data-name="Icon ionic-ios-arrow-round-back" d="M20.791,11.51a.919.919,0,0,0-.007,1.294l4.268,4.282H8.789a.914.914,0,0,0,0,1.828H25.052L20.777,23.2a.925.925,0,0,0,.007,1.294.91.91,0,0,0,1.287-.007l5.794-5.836h0a1.026,1.026,0,0,0,.19-.288.872.872,0,0,0,.07-.352.916.916,0,0,0-.26-.64l-5.794-5.836A.9.9,0,0,0,20.791,11.51Z" transform="translate(-7.882 -11.252)" fill="#ccc"/>
</svg>
