<svg id="engine_power" data-name="engine power" xmlns="http://www.w3.org/2000/svg" width="191.73" height="166.166" viewBox="0 0 191.73 166.166">
  <path id="Path_725" data-name="Path 725" d="M184.143,53.932h-6.391a3.2,3.2,0,0,0-3.2,3.2V85.887h-6.391V53.932a9.615,9.615,0,0,0-9.587-9.586H139.406V31.564h31.955a3.2,3.2,0,0,0,3.2-3.2V21.977A15.978,15.978,0,0,0,158.579,6H94.669A15.978,15.978,0,0,0,78.692,21.977v6.391a3.2,3.2,0,0,0,3.2,3.2h31.955V44.346H88.6a3.017,3.017,0,0,0-1.821.575L55.333,66.714H37.15A9.615,9.615,0,0,0,27.564,76.3v41.541H21.173V89.083a3.2,3.2,0,0,0-3.2-3.2H11.586A9.615,9.615,0,0,0,2,95.474v63.91a9.615,9.615,0,0,0,9.586,9.586h6.391a3.2,3.2,0,0,0,3.2-3.2v-28.76h6.391v25.564a9.615,9.615,0,0,0,9.587,9.587h88.515a9.606,9.606,0,0,0,8.756-5.688l10.258-23.072H164.97a3.2,3.2,0,0,0,3.2-3.2V105.06h6.391V133.82a3.2,3.2,0,0,0,3.2,3.2h6.391a9.615,9.615,0,0,0,9.586-9.587V63.519a9.615,9.615,0,0,0-9.587-9.587ZM14.782,162.579h-3.2a3.2,3.2,0,0,1-3.2-3.2V95.474a3.2,3.2,0,0,1,3.2-3.2h3.2Zm12.782-31.955H21.173v-6.391h6.391ZM85.083,25.173v-3.2a9.615,9.615,0,0,1,9.586-9.586h63.91a9.615,9.615,0,0,1,9.587,9.586v3.2Zm47.932,6.391V44.346H120.233V31.564Zm28.759,105.451H142.6a3.154,3.154,0,0,0-2.908,1.885l-11.12,24.989a3.2,3.2,0,0,1-2.908,1.885H37.15a3.2,3.2,0,0,1-3.2-3.2V76.3a3.2,3.2,0,0,1,3.2-3.2H56.323a3.157,3.157,0,0,0,1.821-.575L89.589,50.737h68.991a3.2,3.2,0,0,1,3.2,3.2Zm12.782-38.346h-6.391V92.278h6.391Zm12.782,28.759a3.2,3.2,0,0,1-3.2,3.2h-3.2v-70.3h3.2a3.2,3.2,0,0,1,3.2,3.2Z" transform="translate(-2 -6)"/>
  <path id="Path_726" data-name="Path 726" d="M37.977,35A15.978,15.978,0,1,0,53.955,50.977,15.977,15.977,0,0,0,37.977,35Zm0,25.564a9.586,9.586,0,1,1,9.586-9.586A9.586,9.586,0,0,1,37.977,60.564Z" transform="translate(41.91 57.669)"/>
  <path id="Path_727" data-name="Path 727" d="M115.444,50.915l-7.669-.991,4.761-6.1a3.215,3.215,0,0,0-.256-4.218l-8.628-8.628a3.215,3.215,0,0,0-4.218-.256l-6.1,4.761-.991-7.669A3.2,3.2,0,0,0,89.177,25H77.034a3.2,3.2,0,0,0-3.164,2.812l-.991,7.669-6.1-4.761a3.215,3.215,0,0,0-4.218.256l-6.774,6.806h-10.7a3.2,3.2,0,0,0-3.164,2.812l-.991,7.669-6.1-4.761a3.215,3.215,0,0,0-4.218.256l-8.628,8.628A3.215,3.215,0,0,0,21.72,56.6l4.761,6.1-7.669.991A3.2,3.2,0,0,0,16,66.861V79a3.2,3.2,0,0,0,2.812,3.164l7.669.991L21.72,89.23a3.256,3.256,0,0,0,.256,4.25l8.628,8.628a3.215,3.215,0,0,0,4.218.256l6.1-4.761.991,7.669a3.2,3.2,0,0,0,3.164,2.812H57.222a3.2,3.2,0,0,0,3.164-2.812l.991-7.669,6.1,4.761a3.215,3.215,0,0,0,4.218-.256L78.472,95.3h10.7a3.2,3.2,0,0,0,3.164-2.812l.991-7.669,6.1,4.761a3.215,3.215,0,0,0,4.218-.256L112.28,80.7a3.215,3.215,0,0,0,.256-4.218l-4.761-6.1,7.669-.991a3.2,3.2,0,0,0,2.812-3.164V54.079a3.2,3.2,0,0,0-2.812-3.164ZM69.173,95.589l-6.04-4.7a3.132,3.132,0,0,0-3.323-.351,13.614,13.614,0,0,1-2.237.895,3.256,3.256,0,0,0-2.2,2.652l-.959,7.605H47.891l-.959-7.605a3.256,3.256,0,0,0-2.2-2.652,13.612,13.612,0,0,1-2.237-.895,3.132,3.132,0,0,0-3.323.351l-6.039,4.7-4.633-4.633,4.7-6.039a3.132,3.132,0,0,0,.352-3.323,13.613,13.613,0,0,1-.895-2.237A3.256,3.256,0,0,0,30,77.151l-7.605-.959V69.673L30,68.714a3.256,3.256,0,0,0,2.652-2.2,13.613,13.613,0,0,1,.895-2.237,3.132,3.132,0,0,0-.352-3.323l-4.7-6.039,4.633-4.633,6.039,4.7a3.132,3.132,0,0,0,3.323.351,13.613,13.613,0,0,1,2.237-.895,3.256,3.256,0,0,0,2.2-2.652l.959-7.605h6.423l1.055,7.637a3.215,3.215,0,0,0,2.2,2.62,13.611,13.611,0,0,1,2.237.895,3.135,3.135,0,0,0,3.355-.383l6.008-4.665,4.633,4.633-4.7,6.039a3.132,3.132,0,0,0-.352,3.323,13.612,13.612,0,0,1,.895,2.237,3.256,3.256,0,0,0,2.652,2.2l7.605.959v6.519l-7.605.959a3.5,3.5,0,0,0-2.684,2.333l-.16.511c-.224.575-.479,1.086-.7,1.6a3.132,3.132,0,0,0,.352,3.323l4.7,6.039Zm11.152-43.2L79.3,51.363a9.567,9.567,0,1,1,7,17.8v-2.3A3.2,3.2,0,0,0,83.489,63.7l-7.669-.991,4.761-6.1a3.215,3.215,0,0,0-.256-4.218Zm31.54,11.024-7.605.959a3.256,3.256,0,0,0-2.652,2.2,13.612,13.612,0,0,1-.895,2.237,3.132,3.132,0,0,0,.352,3.323l4.7,6.039-4.633,4.633-6.039-4.7a3.2,3.2,0,0,0-3.323-.352,13.611,13.611,0,0,1-2.237.895,3.256,3.256,0,0,0-2.2,2.652l-.959,7.605H80.325L75.82,83.158l7.669-.991A3.2,3.2,0,0,0,86.3,79v-3.2A15.977,15.977,0,1,0,74.574,46.634L71.7,43.758A3.215,3.215,0,0,0,67.48,43.5l-6.135,4.761-.863-6.135,4.6-4.633,6.04,4.7a3.138,3.138,0,0,0,3.323.352,13.613,13.613,0,0,1,2.237-.895A3.256,3.256,0,0,0,78.887,39l.959-7.605h6.519L87.324,39a3.256,3.256,0,0,0,2.2,2.652,13.614,13.614,0,0,1,2.237.895,3.132,3.132,0,0,0,3.323-.352l6.04-4.7,4.633,4.633-4.7,6.04a3.132,3.132,0,0,0-.352,3.323,13.611,13.611,0,0,1,.895,2.237,3.256,3.256,0,0,0,2.652,2.2l7.605.959Z" transform="translate(28.737 35.714)"/>
  <path id="Path_728" data-name="Path 728" d="M48,22h6.391v6.391H48Z" transform="translate(98.993 29.128)"/>
  <path id="Path_729" data-name="Path 729" d="M44,22h6.391v6.391H44Z" transform="translate(90.211 29.128)"/>
  <path id="Path_730" data-name="Path 730" d="M14,52h6.391v6.391H14Z" transform="translate(24.346 94.993)"/>
  <path id="Path_731" data-name="Path 731" d="M18,52h6.391v6.391H18Z" transform="translate(33.128 94.993)"/>
</svg>
