<svg id="fan_1_" data-name="fan (1)" xmlns="http://www.w3.org/2000/svg" width="168.333" height="168.333" viewBox="0 0 168.333 168.333">
  <g id="Group_2943" data-name="Group 2943">
    <path id="Path_732" data-name="Path 732" d="M142.115,0H26.217A26.247,26.247,0,0,0,0,26.217v115.9a26.247,26.247,0,0,0,26.217,26.217h115.9a26.247,26.247,0,0,0,26.218-26.217V26.217A26.247,26.247,0,0,0,142.115,0ZM163.4,142.115A21.31,21.31,0,0,1,142.115,163.4H26.217A21.31,21.31,0,0,1,4.932,142.115V26.217A21.31,21.31,0,0,1,26.217,4.932h115.9A21.31,21.31,0,0,1,163.4,26.217Z" transform="translate(0)"/>
    <path id="Path_733" data-name="Path 733" d="M166.017,35.61H50.119a14.527,14.527,0,0,0-14.51,14.51v7.472a2.466,2.466,0,1,0,4.932,0V50.12a9.589,9.589,0,0,1,9.579-9.579h115.9a9.589,9.589,0,0,1,9.579,9.579v115.9a9.589,9.589,0,0,1-9.579,9.579H50.119a9.589,9.589,0,0,1-9.579-9.579v-96.9a2.466,2.466,0,0,0-4.932,0v96.9a14.526,14.526,0,0,0,14.51,14.51h115.9a14.526,14.526,0,0,0,14.51-14.51V50.12a14.526,14.526,0,0,0-14.51-14.51Z" transform="translate(-23.902 -23.902)"/>
    <path id="Path_734" data-name="Path 734" d="M198.425,150.181c-6.892-4.864-18.489-6.718-27.776-4.6a14.263,14.263,0,0,0-3.6-3.768c1.849-3.816,5.069-6.627,10.639-9.388,2.93-1.453,6.578-3.262,6.578-8.057,0-13.1-13.181-21.2-25.393-21.2-14,0-25.393,9.511-25.393,21.2,0,5.806,2.845,13.547,7.247,19.722a36.151,36.151,0,0,0,4.48,5.214,14.066,14.066,0,0,0-.557,3.249c-3.9-.284-7.574-2.041-12.121-5.713l-.061-.049c-2.517-2.034-5.649-4.566-10.007-2.561-11.9,5.471-13.756,20.833-8.654,31.928,5.393,11.73,18.451,19.464,29.87,14.213,8.052-3.7,15.987-13.886,18.377-23.3a14.019,14.019,0,0,0,2.071-.664c2.33,3.477,3.411,7.62,2.224,15.253-.5,3.232-1.128,7.255,2.79,10.02,10.4,7.339,24.66,1.826,31.963-8.523a28.838,28.838,0,0,0,5.333-17.511C206.148,159.113,203.3,153.623,198.425,150.181Zm-53.679-8.954c-3.786-5.31-6.33-12.085-6.33-16.858,0-8.971,9.179-16.27,20.461-16.27,12.638,0,20.461,8.445,20.461,16.27,0,1.531-.772,2.118-3.837,3.638-6.578,3.261-10.566,6.838-12.893,11.662a14.123,14.123,0,0,0-15.041,5.014A32.962,32.962,0,0,1,144.746,141.227Zm-3.126,44.663c-8.86,4.075-19.1-2.59-23.33-11.793-5.28-11.483-.876-22.118,6.234-25.387,1.392-.64,2.235-.194,4.847,1.916l.062.05c5.7,4.6,10.558,6.722,15.846,6.847a14.194,14.194,0,0,0,11.582,9.793c-2.6,8.123-9.666,16.01-15.24,18.573Zm17.169-23.37a9.224,9.224,0,1,1,9.224-9.224A9.234,9.234,0,0,1,158.789,162.52Zm38.288,17.788c-5.811,8.234-17.08,12.99-25.09,7.337-1.252-.883-1.286-1.852-.76-5.233,1.238-7.966.392-13.563-2.931-18.637a14.116,14.116,0,0,0,4.308-13.561c7.721-1.471,17.524.146,22.979,4a14.6,14.6,0,0,1,5.931,11.65,23.819,23.819,0,0,1-4.436,14.448Z" transform="translate(-74.601 -69.249)"/>
    <path id="Path_735" data-name="Path 735" d="M387.667,403.7a9.7,9.7,0,1,0,9.7-9.7A9.71,9.71,0,0,0,387.667,403.7Zm14.466,0a4.767,4.767,0,1,1-4.767-4.767A4.773,4.773,0,0,1,402.133,403.7Z" transform="translate(-260.212 -264.463)"/>
    <path id="Path_736" data-name="Path 736" d="M220.383,140.154a2.466,2.466,0,0,0-.374,3.467,55.132,55.132,0,0,1,12.3,34.932A55.81,55.81,0,0,1,176.561,234.3,55.132,55.132,0,0,1,141.629,222a2.466,2.466,0,1,0-3.092,3.841,60.681,60.681,0,0,0,85.313-85.313,2.465,2.465,0,0,0-3.467-.374Z" transform="translate(-92.372 -93.709)"/>
    <path id="Path_737" data-name="Path 737" d="M171.059,87.583A60.68,60.68,0,0,0,85.592,173.05a2.466,2.466,0,0,0,3.786-3.161,55.748,55.748,0,0,1,78.52-78.52,2.466,2.466,0,0,0,3.161-3.786Z" transform="translate(-47.999 -49.335)"/>
  </g>
</svg>
