<svg id="steering-wheel" xmlns="http://www.w3.org/2000/svg" width="165.593" height="165.593" viewBox="0 0 165.593 165.593">
  <path id="Path_702" data-name="Path 702" d="M241.874,228.937a12.937,12.937,0,1,0-12.937,12.937A12.952,12.952,0,0,0,241.874,228.937Zm-19.405,0a6.468,6.468,0,1,1,6.468,6.468A6.476,6.476,0,0,1,222.468,228.937Z" transform="translate(-146.14 -146.141)"/>
  <ellipse id="Ellipse_67" data-name="Ellipse 67" cx="3" cy="3.5" rx="3" ry="3.5" transform="translate(136.038 135.593)"/>
  <path id="Path_703" data-name="Path 703" d="M82.8,0a82.8,82.8,0,1,0,46.926,151.04,3.234,3.234,0,1,0-3.668-5.327A76.358,76.358,0,0,1,6.542,86.031H19.489a63.389,63.389,0,0,0,126.614,0h12.951a75.858,75.858,0,0,1-13.343,40.027,3.234,3.234,0,0,0,5.328,3.668A82.828,82.828,0,0,0,82.8,0Zm0,6.468a76.418,76.418,0,0,1,76.254,73.094H146.1a63.387,63.387,0,0,0-126.61,0H6.542A76.419,76.419,0,0,1,82.8,6.468Zm45.721,110.194L107,104.238a32.416,32.416,0,0,0,6.475-11.2L135,105.471A56.736,56.736,0,0,1,128.517,116.662Zm-91.442,0a56.728,56.728,0,0,1-6.488-11.191L52.12,93.038a32.42,32.42,0,0,0,6.474,11.2ZM25.874,82.8A56.669,56.669,0,0,1,69.859,27.354v25.8a32.276,32.276,0,0,0-19.2,33.26l-22.347,12.9A56.642,56.642,0,0,1,25.874,82.8Zm63.391-31.69a32.412,32.412,0,0,0-12.937,0V26.243a56.876,56.876,0,0,1,12.937,0ZM56.923,82.8A25.874,25.874,0,1,1,82.8,108.67,25.881,25.881,0,0,1,56.923,82.8Zm58.008,3.613a32.272,32.272,0,0,0-19.2-33.26v-25.8a56.959,56.959,0,0,1,41.544,71.96ZM82.8,139.719A56.7,56.7,0,0,1,41.287,121.7L63.6,108.817a32.3,32.3,0,0,0,38.389,0L124.306,121.7A56.7,56.7,0,0,1,82.8,139.719Z"/>
</svg>
