<?xml version="1.0" encoding="iso-8859-1"?>
<!-- Generator: Adobe Illustrator 19.0.0, SVG Export Plug-In . SVG Version: 6.00 Build 0)  -->
<svg version="1.1" id="Layer_1" xmlns="http://www.w3.org/2000/svg" xmlns:xlink="http://www.w3.org/1999/xlink" x="0px" y="0px"
	 viewBox="0 0 30 30" style="enable-background:new 0 0 30 30;" xml:space="preserve">
<path id="XMLID_14_" style="fill:#34B44A;" d="M29.503,15.208c0,7.73-6.27,14-14,14c-2.32,0-4.51-0.57-6.44-1.57l-8.26,1.57
	c0,0,0,0,2.78-6.65c-1.32-2.14-2.08-4.66-2.08-7.35c0-7.73,6.26-14,14-14C23.233,1.208,29.503,7.478,29.503,15.208z"/>
<path id="XMLID_2_" style="fill:#FFFFFF;" d="M9.583,6L7,8.667c-0.166,0.279-0.63,1.141-0.5,2.292
	c0.105,0.927,0.541,1.564,0.75,1.833c3.056,3.097,6.111,6.194,9.167,9.292c0.165,0.192,1.442,1.636,3.333,1.5
	c0.825-0.059,1.446-0.396,1.792-0.625c0.847-0.625,1.694-1.25,2.542-1.875c0.073-0.09,0.373-0.481,0.333-1.042
	c-0.03-0.434-0.247-0.727-0.333-0.833c-0.889-0.819-1.778-1.639-2.667-2.458c-0.107-0.059-0.382-0.193-0.75-0.167
	c-0.425,0.031-0.704,0.256-0.792,0.333c-0.364,0.32-0.509,0.464-0.958,0.917c-0.523,0.527-0.784,0.79-1.042,0.833
	c-0.435,0.073-0.809-0.249-1.375-0.75c-1.085-0.961-1.638-1.43-2.125-1.917c-0.751-0.75-1.444-1.556-2.167-2.333
	c-0.153-0.165-0.475-0.51-0.458-0.958c0.011-0.303,0.131-0.557,0.375-0.792c0.389-0.375,0.778-0.75,1.167-1.125
	c0.055-0.05,0.445-0.419,0.417-1c-0.025-0.507-0.351-0.815-0.417-0.875C12.583,8.111,10.926,6,10.417,5.875
	C9.992,5.771,9.654,5.958,9.583,6z"/>
</svg>
