<svg id="fan" xmlns="http://www.w3.org/2000/svg" width="171.724" height="166" viewBox="0 0 171.724 166">
  <g id="Group_2912" data-name="Group 2912" transform="translate(11.448 48.655)">
    <g id="Group_2911" data-name="Group 2911">
      <path id="Path_704" data-name="Path 704" d="M177.966,144H34.862A2.862,2.862,0,0,0,32,146.862v88.724a2.862,2.862,0,0,0,2.862,2.862h143.1a2.862,2.862,0,0,0,2.862-2.862V146.862A2.862,2.862,0,0,0,177.966,144ZM175.1,232.724H37.724v-83H175.1Z" transform="translate(-32 -144)"/>
    </g>
  </g>
  <g id="Group_2914" data-name="Group 2914" transform="translate(26.116 60.188)">
    <g id="Group_2913" data-name="Group 2913" transform="translate(0 0)">
      <rect id="Rectangle_2415" data-name="Rectangle 2415" width="6" height="71" transform="translate(-0.074 0.405)"/>
    </g>
  </g>
  <g id="Group_2916" data-name="Group 2916" transform="translate(36.979 60.188)">
    <g id="Group_2915" data-name="Group 2915" transform="translate(0 0)">
      <rect id="Rectangle_2416" data-name="Rectangle 2416" width="5" height="71" transform="translate(0.063 0.405)"/>
    </g>
  </g>
  <g id="Group_2918" data-name="Group 2918" transform="translate(48.928 60.188)">
    <g id="Group_2917" data-name="Group 2917" transform="translate(0 0)">
      <rect id="Rectangle_2417" data-name="Rectangle 2417" width="5" height="71" transform="translate(0.114 0.405)"/>
    </g>
  </g>
  <g id="Group_2920" data-name="Group 2920" transform="translate(59.792 60.188)">
    <g id="Group_2919" data-name="Group 2919" transform="translate(0 0)">
      <rect id="Rectangle_2418" data-name="Rectangle 2418" width="6" height="71" transform="translate(0.251 0.405)"/>
    </g>
  </g>
  <g id="Group_2922" data-name="Group 2922" transform="translate(71.741 60.188)">
    <g id="Group_2921" data-name="Group 2921" transform="translate(0 0)">
      <rect id="Rectangle_2419" data-name="Rectangle 2419" width="5" height="71" transform="translate(0.301 0.405)"/>
    </g>
  </g>
  <g id="Group_2924" data-name="Group 2924" transform="translate(82.603 60.188)">
    <g id="Group_2923" data-name="Group 2923" transform="translate(0 0)">
      <rect id="Rectangle_2420" data-name="Rectangle 2420" width="6" height="71" transform="translate(0.439 0.405)"/>
    </g>
  </g>
  <g id="Group_2926" data-name="Group 2926" transform="translate(94.552 60.188)">
    <g id="Group_2925" data-name="Group 2925" transform="translate(0 0)">
      <rect id="Rectangle_2421" data-name="Rectangle 2421" width="5" height="71" transform="translate(0.489 0.405)"/>
    </g>
  </g>
  <g id="Group_2928" data-name="Group 2928" transform="translate(105.415 60.188)">
    <g id="Group_2927" data-name="Group 2927" transform="translate(0 0)">
      <rect id="Rectangle_2422" data-name="Rectangle 2422" width="7" height="71" transform="translate(-0.373 0.405)"/>
    </g>
  </g>
  <g id="Group_2930" data-name="Group 2930" transform="translate(117.364 60.188)">
    <g id="Group_2929" data-name="Group 2929" transform="translate(0 0)">
      <rect id="Rectangle_2423" data-name="Rectangle 2423" width="6" height="71" transform="translate(-0.322 0.405)"/>
    </g>
  </g>
  <g id="Group_2932" data-name="Group 2932" transform="translate(129.313 60.188)">
    <g id="Group_2931" data-name="Group 2931" transform="translate(0 0)">
      <rect id="Rectangle_2424" data-name="Rectangle 2424" width="6" height="71" transform="translate(-0.271 0.405)"/>
    </g>
  </g>
  <g id="Group_2934" data-name="Group 2934" transform="translate(140.177 60.188)">
    <g id="Group_2933" data-name="Group 2933" transform="translate(0 0)">
      <rect id="Rectangle_2425" data-name="Rectangle 2425" width="6" height="71" transform="translate(-0.135 0.405)"/>
    </g>
  </g>
  <g id="Group_2936" data-name="Group 2936">
    <g id="Group_2935" data-name="Group 2935">
      <path id="Path_705" data-name="Path 705" d="M151.69,30.9h-6.972a14.227,14.227,0,0,0-26.122,0H103.034V25.172h5.724a2.862,2.862,0,0,0,2.862-2.862V10.862A2.862,2.862,0,0,0,108.759,8H62.966A2.862,2.862,0,0,0,60.1,10.862V22.31a2.862,2.862,0,0,0,2.862,2.862H68.69V30.9h-22.9V28.034a2.862,2.862,0,0,0-2.862-2.862H31.483a2.862,2.862,0,0,0-2.862,2.862V30.9H20.034A20.057,20.057,0,0,0,0,50.931V153.965A20.057,20.057,0,0,0,20.034,174H151.69a20.057,20.057,0,0,0,20.034-20.035V50.931A20.057,20.057,0,0,0,151.69,30.9Zm-28.309,3.58a8.452,8.452,0,1,1-.312,2.144A8.568,8.568,0,0,1,123.381,34.477ZM65.828,19.448V13.724H105.9v5.724ZM97.31,25.172V30.9h-22.9V25.172ZM166,153.965a14.328,14.328,0,0,1-14.31,14.31H20.034a14.327,14.327,0,0,1-14.31-14.31V50.931a14.328,14.328,0,0,1,14.31-14.31H31.483a2.862,2.862,0,0,0,2.862-2.862V30.9h5.724v2.862a2.862,2.862,0,0,0,2.862,2.862h74.414a14.31,14.31,0,1,0,28.621,0h5.724A14.328,14.328,0,0,1,166,50.931Z" transform="translate(0 -8)"/>
    </g>
  </g>
  <g id="Group_2938" data-name="Group 2938" transform="translate(19.599 149.264)">
    <g id="Group_2937" data-name="Group 2937" transform="translate(0 0)">
      <rect id="Rectangle_2426" data-name="Rectangle 2426" width="6" height="5" transform="translate(0.443 0.329)"/>
    </g>
  </g>
  <g id="Group_2940" data-name="Group 2940" transform="translate(19.599 37.376)">
    <g id="Group_2939" data-name="Group 2939" transform="translate(0 0)">
      <rect id="Rectangle_2427" data-name="Rectangle 2427" width="6" height="5" transform="translate(0.443 0.217)"/>
    </g>
  </g>
  <g id="Group_2942" data-name="Group 2942" transform="translate(145.608 149.264)">
    <g id="Group_2941" data-name="Group 2941" transform="translate(0 0)">
      <rect id="Rectangle_2428" data-name="Rectangle 2428" width="6" height="5" transform="translate(0.434 0.329)"/>
    </g>
  </g>
</svg>
