<svg id="motor" xmlns="http://www.w3.org/2000/svg" width="220.937" height="152.665" viewBox="0 0 220.937 152.665">
  <g id="Group_2830" data-name="Group 2830">
    <g id="Group_2829" data-name="Group 2829">
      <path id="Path_123" data-name="Path 123" d="M214.765,79.107h-7.137a7.04,7.04,0,0,0-6.976,6.17L189.9,91.113l-.017.009-.534.29a50.357,50.357,0,0,1-8.647,3.7,40.38,40.38,0,0,1-14.55,2.417H139.281a3.235,3.235,0,1,0,0,6.47h26.876a46.316,46.316,0,0,0,16.518-2.725,56.461,56.461,0,0,0,5.523-2.1v12.284a3.235,3.235,0,0,0,6.47,0V95.887l5.924-3.216v51.391l-8.156-4.428a56.865,56.865,0,0,0-9.761-4.174,46.308,46.308,0,0,0-16.511-2.725h-61a29.747,29.747,0,0,0-8.084,1.122c-.065.016-.13.035-.194.055a29.966,29.966,0,0,0-17.37,13.431,3.248,3.248,0,0,0-.826,1.485,29.736,29.736,0,0,0-2.509,20.851,3.242,3.242,0,0,0,.564,2,29.984,29.984,0,0,0,12.87,16.36,3.244,3.244,0,0,0,1.81,1.018A29.764,29.764,0,0,0,112.4,191.53a3.249,3.249,0,0,0,1.415-.391,29.821,29.821,0,0,0,9.87-51.933h35.2a58.038,58.038,0,0,1,4.854,23.374A58.579,58.579,0,1,1,105.165,104h21.176a3.235,3.235,0,1,0,0-6.47H105.165A65.037,65.037,0,0,0,46.61,190.894H38.824a5.523,5.523,0,0,0-6.662-4.909l-.046.01L5.911,192.007C3.04,192.633,0,195.038,0,198.279v21.074c0,3.241,3.04,5.646,5.911,6.272l26.206,6.013.046.01a5.567,5.567,0,0,0,1.168.124,5.522,5.522,0,0,0,5.34-4.146h9.167a3.235,3.235,0,0,0,0-6.47H38.852V197.364h11.37A65.5,65.5,0,0,0,76.9,221.156H60.778a3.235,3.235,0,0,0,0,6.47h44.388A65.08,65.08,0,0,0,165.884,139.2h.264a40.381,40.381,0,0,1,14.555,2.417,50.4,50.4,0,0,1,8.647,3.7l11.3,6.136a7.041,7.041,0,0,0,6.976,6.17h7.137c3.692,0,6.172-2.827,6.172-7.035V86.142C220.937,81.934,218.457,79.107,214.765,79.107Zm-109.6,60.1a23.23,23.23,0,0,1,10.093,2.294,11.114,11.114,0,0,1-3.1,9.62l-.072.074-.782.834a12.166,12.166,0,0,0-2.861-1.212l-.044-1.391a17.557,17.557,0,0,0-3.336-10.217Zm-7.772,1.333a11.116,11.116,0,0,1,4.537,8.94c0,.035,0,.069,0,.1l.039,1.21a12.118,12.118,0,0,0-2.816,1.162l-1.081-1.014a17.556,17.556,0,0,0-9.46-4.846A23.409,23.409,0,0,1,97.393,140.537Zm-4.037,29.1a17.551,17.551,0,0,0-4.827,9.337,23.413,23.413,0,0,1-5.466-8.807,11.117,11.117,0,0,1,8.831-4.387l.1,0,1.369-.044a12.128,12.128,0,0,0,1.1,2.722Zm.057-10.378-1.571.05a17.555,17.555,0,0,0-10.048,3.214,23.231,23.231,0,0,1,2.325-10.106,11.116,11.116,0,0,1,9.419,3.132c.024.025.049.048.074.072l.956.9A12.1,12.1,0,0,0,93.413,159.261Zm1.415,24.272a11.116,11.116,0,0,1,3.141-9.358c.025-.024.048-.049.072-.074l.937-1a12.133,12.133,0,0,0,2.7,1.179l.051,1.589a17.553,17.553,0,0,0,3.233,10.076A23.223,23.223,0,0,1,94.828,183.533Zm10.337-15.212a5.744,5.744,0,1,1,3.873-9.972,3.265,3.265,0,0,0,.375.424c.06.056.122.107.184.157A5.716,5.716,0,0,1,110.9,162.5a3.254,3.254,0,0,0-.025.488c0,.022,0,.043.005.065A5.749,5.749,0,0,1,105.165,168.322Zm7.5,16.387a11.115,11.115,0,0,1-4.469-8.892c0-.035,0-.069,0-.1l-.041-1.294a12.142,12.142,0,0,0,2.8-1.093l1.1,1.03a17.558,17.558,0,0,0,9.506,4.858A23.407,23.407,0,0,1,112.669,184.708Zm13.485-11.858a11.114,11.114,0,0,1-9.561-3.108l-.074-.072-.878-.823a12.143,12.143,0,0,0,1.238-2.82l1.409-.045a17.559,17.559,0,0,0,10.249-3.359A23.229,23.229,0,0,1,126.154,172.85Zm1.08-17.96a11.113,11.113,0,0,1-9,4.622l-.1,0L117,159.55a12.139,12.139,0,0,0-1.159-2.9l.934-1a17.56,17.56,0,0,0,4.874-9.634A23.423,23.423,0,0,1,127.234,154.89ZM32.382,225.061,7.339,219.314l-.046-.01a2.32,2.32,0,0,1-.823-.413v-2.58l25.912,1.857Zm0-13.378L6.831,209.852c-.124-.008-.243-.02-.361-.032v-2.006c.123-.013.247-.025.377-.034l25.535-1.83Zm0-12.219L6.47,201.32v-2.58a2.311,2.311,0,0,1,.823-.412l.046-.01,25.044-5.746Zm182.043-48.308h-6.8a.565.565,0,0,1-.565-.565V86.142a.565.565,0,0,1,.565-.565h6.8a3.477,3.477,0,0,1,.041.564V150.59h0A3.435,3.435,0,0,1,214.425,151.155Z" transform="translate(0 -79.107)"/>
    </g>
  </g>
  <g id="Group_2832" data-name="Group 2832" transform="translate(47.84 74.332)">
    <g id="Group_2831" data-name="Group 2831" transform="translate(0 0)">
      <path id="Path_124" data-name="Path 124" d="M132.236,251.763a8.913,8.913,0,1,0,8.913,8.913A8.923,8.923,0,0,0,132.236,251.763Zm0,10.747a1.835,1.835,0,1,1,1.835-1.835A1.837,1.837,0,0,1,132.236,262.51Z" transform="translate(-123.323 -251.763)"/>
    </g>
  </g>
  <g id="Group_2834" data-name="Group 2834" transform="translate(61.24 108.48)">
    <g id="Group_2833" data-name="Group 2833" transform="translate(0 0)">
      <path id="Path_125" data-name="Path 125" d="M166.926,326.711a8.911,8.911,0,1,0,2.61,6.3A8.922,8.922,0,0,0,166.926,326.711Zm-5,7.6a1.88,1.88,0,0,1-2.6,0,1.835,1.835,0,1,1,2.6,0Z" transform="translate(-151.711 -324.104)"/>
    </g>
  </g>
  <g id="Group_2836" data-name="Group 2836" transform="translate(94.859 123.143)">
    <g id="Group_2835" data-name="Group 2835">
      <path id="Path_126" data-name="Path 126" d="M231.845,355.167a8.913,8.913,0,1,0,8.913,8.913A8.923,8.923,0,0,0,231.845,355.167Zm0,10.747a1.835,1.835,0,1,1,1.835-1.835A1.837,1.837,0,0,1,231.845,365.914Z" transform="translate(-222.932 -355.167)"/>
    </g>
  </g>
  <g id="Group_2838" data-name="Group 2838" transform="translate(129.003 109.742)">
    <g id="Group_2837" data-name="Group 2837" transform="translate(0 0)">
      <path id="Path_127" data-name="Path 127" d="M310.479,329.388a8.911,8.911,0,1,0,2.61,6.3A8.852,8.852,0,0,0,310.479,329.388Zm-5.005,7.6a1.879,1.879,0,0,1-2.595,0,1.836,1.836,0,1,1,2.595,0Z" transform="translate(-295.264 -326.777)"/>
    </g>
  </g>
  <g id="Group_2840" data-name="Group 2840" transform="translate(143.67 76.123)">
    <g id="Group_2839" data-name="Group 2839" transform="translate(0 0)">
      <path id="Path_128" data-name="Path 128" d="M335.248,255.557a8.913,8.913,0,1,0,8.913,8.913A8.923,8.923,0,0,0,335.248,255.557Zm0,10.748a1.835,1.835,0,1,1,1.835-1.835A1.837,1.837,0,0,1,335.248,266.305Z" transform="translate(-326.336 -255.557)"/>
    </g>
  </g>
  <g id="Group_2842" data-name="Group 2842" transform="translate(195.304 35.062)">
    <g id="Group_2841" data-name="Group 2841">
      <path id="Path_129" data-name="Path 129" d="M439.262,168.57a3.539,3.539,0,0,0-3.539,3.539v6.134a3.539,3.539,0,1,0,7.078,0v-6.134A3.539,3.539,0,0,0,439.262,168.57Z" transform="translate(-435.723 -168.57)"/>
    </g>
  </g>
</svg>
